<svg xmlns="http://www.w3.org/2000/svg" xmlns:xlink="http://www.w3.org/1999/xlink" width="500" zoomAndPan="magnify" viewBox="0 0 375 374.999991" height="500" preserveAspectRatio="xMidYMid meet" version="1.0"><defs><g/></defs><rect x="-37.5" width="450" fill="#ffffff" y="-37.499999" height="449.999989" fill-opacity="1"/><rect x="-37.5" width="450" fill="#ffffff" y="-37.499999" height="449.999989" fill-opacity="1"/><g fill="#2e2e2e" fill-opacity="1"><g transform="translate(-13.765062, 286.890093)"><g><path d="M 154.921875 -39.4375 L 61.65625 -39.4375 L 43.5 0 L 14.703125 0 L 110.171875 -205.9375 L 200.609375 0 L 172.125 0 Z M 143.65625 -65.40625 L 109.21875 -142.71875 L 73.546875 -65.40625 Z M 143.65625 -65.40625 "/></g></g></g><g fill="#2e2e2e" fill-opacity="1"><g transform="translate(138.635068, 286.890093)"><g><path d="M 30.359375 -203.75 L 56.640625 -203.75 L 56.640625 0 L 30.359375 0 Z M 30.359375 -203.75 "/></g></g></g><g fill="#2e2e2e" fill-opacity="1"><g transform="translate(163.038485, 286.890093)"><g><path d="M 45.0625 -203.75 L 112.671875 -97.328125 L 179.328125 -203.75 L 210.625 -203.75 L 125.5 -69.796875 L 125.5 0 L 99.53125 0 L 99.53125 -69.796875 L 14.078125 -203.75 Z M 45.0625 -203.75 "/></g></g></g></svg>